<svg width="23" height="22" viewBox="0 0 23 22" fill="none" xmlns="http://www.w3.org/2000/svg">
<path fill-rule="evenodd" clip-rule="evenodd" d="M11.0726 0C8.44308 0.000243817 5.89946 0.936197 3.89691 2.64036C1.89437 4.34452 0.563622 6.70568 0.142772 9.3013C-0.278079 11.8969 0.238463 14.5576 1.59995 16.8072C2.96143 19.0568 5.07897 20.7485 7.5737 21.5796C8.12738 21.6819 8.32745 21.3377 8.32745 21.0492C8.32745 20.7607 8.32745 19.9092 8.32745 18.988C5.24731 19.6533 4.60522 17.6806 4.60522 17.6806C4.10272 16.401 3.37688 16.0567 3.37688 16.0567C2.37188 15.3728 3.45134 15.3867 3.45134 15.3867C3.80256 15.4348 4.13812 15.5625 4.43245 15.7601C4.72678 15.9576 4.9721 16.2198 5.14962 16.5267C6.13601 18.2203 7.74118 17.7317 8.37396 17.4572C8.42105 16.8952 8.67073 16.3694 9.07654 15.9777C6.61522 15.6985 4.02828 14.7447 4.02828 10.5013C4.01283 9.40127 4.42287 8.33776 5.17285 7.53285C4.83147 6.57817 4.86983 5.52885 5.27991 4.6016C5.27991 4.6016 6.21043 4.30383 8.32279 5.73688C10.1382 5.24056 12.0535 5.24056 13.8689 5.73688C15.9859 4.30383 16.9119 4.6016 16.9119 4.6016C17.3219 5.52885 17.3602 6.57817 17.0189 7.53285C17.7676 8.33823 18.176 9.40183 18.1588 10.5013C18.1588 14.7586 15.5718 15.6938 13.1059 15.9683C13.3693 16.2375 13.5723 16.5598 13.7015 16.9136C13.8306 17.2674 13.8829 17.6446 13.8549 18.0202C13.8549 19.4998 13.8549 20.6909 13.8549 21.0585C13.8549 21.3516 14.055 21.6959 14.618 21.5889C17.1135 20.7576 19.2316 19.0651 20.593 16.8145C21.9544 14.5639 22.4703 11.9022 22.0482 9.30601C21.6261 6.70978 20.2937 4.34855 18.2895 2.64513C16.2853 0.941712 13.7401 0.00734601 11.1098 0.00931464L11.0726 0Z" fill="white"/>
<path d="M4.19112 15.8986C4.19112 15.9544 4.08415 15.9684 4.00505 15.9312C3.92595 15.8939 3.87938 15.8195 3.90265 15.7636C3.92591 15.7078 4.01433 15.6938 4.09343 15.7311C4.17252 15.7683 4.21903 15.8427 4.19112 15.8986Z" fill="white"/>
<path d="M4.64247 16.3964C4.59129 16.4476 4.48423 16.4243 4.41443 16.3452C4.38181 16.3179 4.36047 16.2796 4.35446 16.2375C4.34844 16.1954 4.3582 16.1525 4.38189 16.1172C4.43772 16.0661 4.53543 16.0893 4.60987 16.1684C4.68432 16.2475 4.69831 16.3499 4.64247 16.3964Z" fill="white"/>
<path d="M5.07984 17.0385C5.01005 17.085 4.89837 17.0385 4.83323 16.9408C4.76809 16.8431 4.76344 16.7221 4.83323 16.6756C4.90302 16.629 5.01005 16.6756 5.07984 16.7686C5.14963 16.8617 5.14963 16.9873 5.07984 17.0385Z" fill="white"/>
<path d="M5.67542 17.6526C5.61494 17.7178 5.48467 17.6992 5.39161 17.6108C5.29856 17.5224 5.26598 17.3921 5.33112 17.327C5.39626 17.2618 5.52188 17.2804 5.61494 17.3688C5.70799 17.4572 5.74056 17.5875 5.67542 17.6526Z" fill="white"/>
<path d="M6.50363 18.0109C6.47571 18.0947 6.35004 18.1365 6.22442 18.0993C6.09879 18.0621 6.01969 17.9597 6.04295 17.8713C6.06622 17.7829 6.19654 17.7457 6.32217 17.7829C6.44779 17.8202 6.52689 17.9225 6.50363 18.0109Z" fill="white"/>
<path d="M7.40622 18.076C7.40622 18.1691 7.30386 18.2435 7.17358 18.2435C7.04331 18.2435 6.93163 18.1737 6.93163 18.0853C6.93163 17.9969 7.034 17.9178 7.16893 17.9132C7.30386 17.9085 7.40622 17.9876 7.40622 18.076Z" fill="white"/>
<path d="M8.25303 17.9318C8.25303 18.0202 8.17396 18.1133 8.04368 18.1366C7.9134 18.1598 7.79711 18.1086 7.78315 18.0202C7.7692 17.9318 7.85757 17.8341 7.98785 17.8109C8.11813 17.7876 8.23442 17.8434 8.25303 17.9318Z" fill="white"/>
</svg>
