<svg width="447" height="447" viewBox="0 0 447 447" fill="none" xmlns="http://www.w3.org/2000/svg">
<path d="M294.224 213.55C293.478 215.08 292.919 216.866 292.546 218.908C292.173 220.438 291.614 221.969 290.868 223.5C290.122 225.031 289.377 226.817 288.631 228.858C288.258 230.389 287.512 231.92 286.393 233.45C286.766 235.491 286.766 237.022 286.393 238.043C286.02 239.063 285.834 240.339 285.834 241.87C284.715 242.89 283.969 244.676 283.596 247.228C283.224 249.779 282.664 252.33 281.918 254.882C280.054 260.495 279.122 264.067 279.122 265.598C279.494 266.618 279.681 267.639 279.681 268.659C279.308 270.7 278.749 274.272 278.003 279.375C276.511 286.009 275.765 290.346 275.765 292.387C276.138 294.428 275.579 295.959 274.087 296.979C273.714 302.592 272.409 307.695 270.172 312.288C270.918 316.37 270.731 320.197 269.612 323.769C268.494 327.341 267.561 331.168 266.816 335.25C266.816 336.271 267.002 337.801 267.375 339.842C267.748 341.373 267.561 343.159 266.816 345.2C265.697 348.772 265.137 350.813 265.137 351.324C265.51 351.834 265.51 352.599 265.137 353.62C263.646 358.212 263.086 360.509 263.459 360.509C263.832 360.509 264.019 361.019 264.019 362.039C264.392 367.652 264.205 370.714 263.459 371.224C262.714 371.224 262.154 371.735 261.781 372.755C261.781 378.878 261.408 381.94 260.663 381.94C260.29 381.94 259.917 382.195 259.544 382.705C260.29 385.257 260.663 387.553 260.663 389.594C260.663 391.125 260.29 393.166 259.544 395.717C261.408 401.841 262.527 405.413 262.9 406.433C263.646 406.943 264.392 407.709 265.137 408.729C264.019 411.281 262.714 413.322 261.222 414.853C259.73 416.384 258.612 418.425 257.866 420.976C256.001 421.486 254.51 422.507 253.391 424.038C252.272 425.568 250.781 426.844 248.916 427.865L237.169 436.284C236.051 437.305 234.932 438.325 233.813 439.346C233.067 440.366 232.135 441.387 231.016 442.408C230.271 443.428 229.152 444.193 227.66 444.704C226.542 445.214 225.609 445.979 224.863 447C222.999 447 221.88 445.979 221.507 443.938C221.134 441.897 220.016 441.132 218.151 441.642C218.897 439.091 218.897 436.539 218.151 433.988C217.778 430.926 217.219 428.12 216.473 425.568C214.981 420.466 213.863 416.639 213.117 414.087C212.371 411.536 211.998 408.729 211.998 405.668C209.388 403.116 207.896 401.075 207.523 399.545C207.15 398.014 206.777 395.973 206.405 393.421C204.913 389.339 203.421 386.277 201.93 384.236C200.811 381.685 199.879 379.134 199.133 376.582C198.76 375.051 198.573 373.521 198.573 371.99C198.946 370.459 198.573 369.183 197.455 368.163C195.963 362.039 194.471 357.447 192.98 354.385C191.488 348.772 190.183 344.435 189.064 341.373C187.946 338.312 187.013 334.995 186.267 331.423C185.149 326.32 184.216 323.259 183.471 322.238C182.725 321.217 182.165 319.942 181.793 318.411C179.928 313.308 178.996 310.247 178.996 309.226C179.369 308.205 179.182 307.185 178.436 306.164C177.318 301.062 176.199 296.979 175.08 293.918C174.334 290.856 173.402 288.05 172.283 285.498C173.029 283.967 173.216 282.437 172.843 280.906C172.47 278.865 171.911 276.824 171.165 274.783C170.046 270.19 169.114 267.894 168.368 267.894C167.622 267.384 167.063 266.618 166.69 265.598L162.215 272.486C160.723 277.079 160.164 279.63 160.537 280.14C161.283 280.651 161.469 281.416 161.096 282.437C159.977 284.988 159.045 287.795 158.299 290.856C157.554 293.918 156.248 296.724 154.384 299.276C152.519 304.378 151.401 307.44 151.028 308.461C149.909 314.584 149.536 318.156 149.909 319.176C150.282 319.687 150.468 319.687 150.468 319.176C149.723 322.238 148.977 324.024 148.231 324.534C147.858 325.045 147.672 325.81 147.672 326.83C147.299 330.402 146.739 333.209 145.993 335.25C145.248 336.781 144.129 338.057 142.637 339.077C142.264 341.628 141.891 343.925 141.519 345.966C141.146 347.497 140.213 348.772 138.722 349.793C137.23 354.896 136.111 357.957 135.366 358.978C133.501 362.55 132.196 365.356 131.45 367.397C131.077 369.438 130.331 371.479 129.213 373.521C129.585 376.582 129.213 378.878 128.094 380.409C127.348 381.94 126.789 383.981 126.416 386.533C123.805 389.084 122.5 390.615 122.5 391.125C122.873 391.125 122.687 391.635 121.941 392.656C120.449 395.207 119.144 396.993 118.025 398.014C116.907 398.524 116.161 399.8 115.788 401.841C112.432 403.882 110.567 404.902 110.194 404.902C110.194 404.392 109.821 404.137 109.076 404.137C106.092 407.709 104.041 410.26 102.923 411.791C98.4477 415.873 94.9051 418.68 92.2947 420.211C90.4302 419.19 88.7521 418.17 87.2604 417.149C86.1417 415.618 84.6501 414.342 82.7855 413.322C83.9043 407.709 84.2772 405.158 83.9043 405.668C83.5314 405.668 83.1585 405.413 82.7855 404.902C81.2939 399.8 80.3616 396.483 79.9887 394.952C78.87 389.339 78.4971 386.533 78.87 386.533C79.2429 386.022 79.4294 385.512 79.4294 385.002C77.9377 378.368 77.1919 374.286 77.1919 372.755C77.1919 371.224 77.0055 369.183 76.6326 366.632C76.6326 361.529 76.2597 357.957 75.5138 355.916C74.768 353.365 74.768 350.813 75.5138 348.262C74.768 346.731 74.2087 344.69 73.8358 342.139C73.4628 339.587 73.6493 337.291 74.3951 335.25C72.1577 330.147 71.5983 327.851 72.717 328.361C73.8358 328.872 74.0222 328.361 73.2764 326.83C70.666 319.176 69.3609 313.308 69.3609 309.226C69.3609 305.144 68.988 301.062 68.2421 296.979C68.2421 295.449 68.0557 294.173 67.6828 293.152C67.3099 291.622 66.937 289.836 66.5641 287.795C66.5641 282.692 66.3776 280.14 66.0047 280.14C65.6318 279.63 65.4453 278.865 65.4453 277.844C64.3266 271.721 63.7672 268.149 63.7672 267.128C64.1402 265.598 63.9537 264.577 63.2079 264.067C63.2079 258.454 62.4621 254.627 60.9704 252.586C58.3601 245.442 57.2414 238.553 57.6143 231.92C56.4955 227.327 55.7497 224.521 55.3768 223.5C55.3768 221.969 55.1904 220.438 54.8175 218.908C52.9529 213.805 51.8342 210.233 51.4613 208.192C51.4613 206.151 50.9019 204.365 49.7832 202.834C47.9187 198.241 46.427 194.414 45.3083 191.353C44.1896 188.291 42.698 185.485 40.8334 182.933C37.4772 181.913 35.2398 180.127 34.1211 177.575C31.1378 177.065 28.341 176.555 25.7306 176.045C23.1203 175.534 20.137 175.789 16.7809 176.81C14.5434 179.872 13.0518 181.658 12.306 182.168C11.5601 182.678 10.8143 182.423 10.0685 181.402C7.08525 182.423 4.8478 183.188 3.35617 183.699C1.86454 183.699 0.745816 183.188 0 182.168C1.11872 175.534 2.05099 171.962 2.79681 171.452C3.54262 170.432 4.10199 169.156 4.47489 167.625C5.96653 167.115 7.08525 166.349 7.83107 165.329C8.20397 163.798 9.13624 162.777 10.6279 162.267C13.2382 157.675 14.5434 155.378 14.5434 155.378C16.4079 153.848 17.8996 152.827 19.0183 152.317C19.7641 151.296 20.3235 150.276 20.6964 149.255C24.0526 148.235 26.1036 147.724 26.8494 147.724C27.2223 147.214 27.5952 146.449 27.9681 145.428C29.0868 144.918 30.2055 144.408 31.3243 143.897C32.443 143.387 33.1888 142.111 33.5617 140.07C37.6637 139.05 39.7147 138.284 39.7147 137.774C40.0876 137.264 40.4605 136.753 40.8334 136.243C42.698 135.733 44.5625 135.733 46.427 136.243C48.2916 136.243 50.1561 135.733 52.0206 134.712C55.7497 133.182 58.3601 133.182 59.8517 134.712C61.3433 136.243 63.0214 136.498 64.886 135.478C66.0047 136.498 66.937 137.774 67.6828 139.305C68.4286 140.836 69.7338 141.346 71.5983 140.836C72.717 144.918 73.4628 146.959 73.8358 146.959C74.5816 146.449 75.5138 146.193 76.6326 146.193C77.3784 147.724 78.1242 149 78.87 150.021C79.6158 150.531 80.3616 151.296 81.1075 152.317C82.5991 157.93 84.0907 160.991 85.5824 161.502C85.5824 164.053 85.7688 165.839 86.1417 166.86C86.8875 167.88 87.6333 168.901 88.3792 169.921L90.0572 182.168C91.176 188.291 92.1082 191.863 92.8541 192.884C93.227 194.414 93.4134 195.945 93.4134 197.476C93.4134 199.007 93.7863 200.538 94.5321 202.068C95.278 209.212 96.7696 214.315 99.007 217.377C100.126 222.479 100.872 225.541 101.244 226.562C101.617 227.072 101.804 227.582 101.804 228.092C102.55 234.726 103.109 239.063 103.482 241.104C103.855 242.635 104.228 244.676 104.601 247.228C104.601 253.351 104.601 256.923 104.601 257.943C104.974 258.964 105.346 259.985 105.719 261.005C104.974 265.598 104.787 268.404 105.16 269.425C105.906 270.445 106.465 271.466 106.838 272.486C106.092 274.017 105.719 275.803 105.719 277.844C106.092 279.885 105.906 281.416 105.16 282.437C107.025 283.967 108.143 286.519 108.516 290.091C109.262 293.152 110.194 296.214 111.313 299.276C110.194 304.889 110.194 308.716 111.313 310.757C112.432 312.288 112.618 313.818 111.872 315.349C112.991 320.962 113.55 324.024 113.55 324.534C113.55 325.045 113.923 325.3 114.669 325.3C116.161 324.789 116.72 323.769 116.347 322.238C116.347 320.197 116.907 318.666 118.025 317.646C118.771 314.584 119.144 312.033 119.144 309.991C119.517 307.95 120.449 306.42 121.941 305.399C122.314 300.296 122.873 297.235 123.619 296.214C124.365 295.193 124.924 294.173 125.297 293.152C126.789 288.56 127.907 284.733 128.653 281.671C129.772 278.099 129.958 274.783 129.213 271.721C131.45 269.68 132.569 267.639 132.569 265.598C132.942 263.557 133.687 262.536 134.806 262.536C134.806 259.985 134.993 257.943 135.366 256.413C136.111 254.882 136.484 252.841 136.484 250.289C137.976 244.166 140.027 240.594 142.637 239.574C143.756 236.002 144.502 232.94 144.875 230.389C145.248 227.837 145.993 225.796 147.112 224.265C148.604 220.183 149.35 216.866 149.35 214.315C149.35 211.764 150.095 209.978 151.587 208.957C151.214 204.365 152.146 201.558 154.384 200.538C154.384 195.435 154.757 192.884 155.503 192.884C156.248 192.373 156.994 191.608 157.74 190.587C158.486 188.546 159.232 187.015 159.977 185.995C160.723 184.974 161.656 183.443 162.774 181.402C165.012 179.361 166.317 178.086 166.69 177.575C167.436 177.065 168.181 176.3 168.927 175.279C172.283 174.769 174.521 173.238 175.64 170.687C178.25 171.707 179.928 171.197 180.674 169.156C181.793 167.115 183.471 166.094 185.708 166.094C186.827 165.074 187.573 164.053 187.946 163.033C188.691 162.012 189.624 161.247 190.742 160.736C192.607 162.267 194.099 163.798 195.217 165.329C196.709 166.86 197.828 168.901 198.573 171.452C198.201 175.024 198.201 177.575 198.573 179.106C198.946 180.637 198.946 182.168 198.573 183.699C199.692 190.332 200.811 195.69 201.93 199.772C201.93 202.324 202.116 204.875 202.489 207.426C203.235 209.467 203.794 211.509 204.167 213.55C204.167 218.142 204.354 220.949 204.726 221.969C205.472 222.99 205.472 224.776 204.726 227.327C207.71 232.94 209.201 237.277 209.201 240.339C209.574 243.401 210.693 245.697 212.557 247.228C214.049 253.351 214.422 256.668 213.676 257.178C213.303 257.178 213.117 257.688 213.117 258.709C214.608 264.322 215.727 267.639 216.473 268.659C217.592 269.68 217.778 270.7 217.032 271.721C218.524 278.354 219.456 282.437 219.829 283.967C220.575 284.988 221.134 286.264 221.507 287.795C222.253 294.938 222.812 299.021 223.185 300.041C223.558 300.551 224.118 301.317 224.863 302.337C226.728 306.42 227.66 308.971 227.66 309.991C228.033 311.012 228.593 311.777 229.338 312.288C234.186 311.777 236.424 309.226 236.051 304.634C237.169 303.613 237.729 302.337 237.729 300.807C238.102 299.276 238.661 297.49 239.407 295.449C240.526 290.346 240.526 286.009 239.407 282.437C241.271 279.885 242.39 276.824 242.763 273.252C243.136 269.68 244.255 266.618 246.119 264.067C246.492 254.882 248.543 247.483 252.272 241.87C251.153 238.808 251.34 236.257 252.832 234.216C254.323 232.175 255.442 230.134 256.188 228.092C257.679 220.949 258.612 216.866 258.985 215.846C259.73 214.315 260.476 212.784 261.222 211.253C262.341 207.682 262.9 205.385 262.9 204.365C262.9 202.834 263.273 201.558 264.019 200.538C265.137 197.986 265.697 196.2 265.697 195.18C266.07 193.649 266.256 192.118 266.256 190.587C268.121 189.567 269.799 185.74 271.29 179.106C272.409 176.045 273.714 173.493 275.206 171.452C276.698 169.411 277.071 167.115 276.325 164.563C278.935 163.033 280.054 161.502 279.681 159.971C279.681 158.44 280.24 158.185 281.359 159.205C280.613 157.164 280.8 155.634 281.918 154.613C283.41 153.592 284.156 152.572 284.156 151.551C286.02 147.469 286.953 144.918 286.953 143.897C286.953 142.877 287.885 142.111 289.749 141.601C292.36 134.967 294.038 129.865 294.784 126.293C295.902 122.211 297.394 119.149 299.259 117.108C301.496 111.495 302.615 107.923 302.615 106.392C302.988 104.861 303.92 103.841 305.412 103.33C307.276 99.2483 308.208 96.6969 308.208 95.6764C308.581 94.1455 309.327 93.3801 310.446 93.3801C311.937 90.3185 312.87 88.2774 313.243 87.2568C313.616 86.2363 314.361 85.4709 315.48 84.9606C316.226 80.3682 317.717 77.0514 319.955 75.0103C322.565 72.4589 324.243 68.887 324.989 64.2945C326.854 63.7842 327.972 63.0188 328.345 61.9983C329.091 60.9777 329.837 60.2123 330.583 59.7021C334.312 55.1096 336.922 52.0479 338.414 50.5171C341.397 47.4555 343.075 45.4144 343.448 44.3938C344.194 42.863 344.94 41.5873 345.686 40.5668C349.788 35.9743 352.957 33.1678 355.195 32.1473C360.415 27.5548 363.772 25.0034 365.263 24.4932C371.23 21.4315 375.145 18.8801 377.01 16.839C379.247 14.2877 381.671 12.5017 384.282 11.4812C389.129 10.9709 392.299 10.2055 393.791 9.18493C395.282 8.16438 396.588 7.14384 397.706 6.12329C399.944 6.63356 401.435 6.37842 402.181 5.35788C402.927 4.33733 404.232 3.82705 406.097 3.82705C408.707 4.33733 410.199 4.33733 410.572 3.82705C410.944 3.31678 411.504 3.06164 412.25 3.06164C415.233 3.06164 416.911 2.80651 417.284 2.29623C417.657 1.27568 418.03 0.765411 418.403 0.765411C419.521 0.765411 420.64 1.02055 421.759 1.53082C422.878 2.0411 423.81 1.53082 424.556 0C429.776 1.02055 432.76 2.29623 433.505 3.82705C434.624 4.8476 435.556 5.86815 436.302 6.8887C438.54 6.8887 440.218 7.65411 441.336 9.18493C442.455 10.7158 443.76 11.9914 445.252 13.012C447.117 17.6045 447.489 20.411 446.371 21.4315C445.625 22.4521 445.811 23.7277 446.93 25.2586C445.811 27.2997 444.693 30.1062 443.574 33.6781C442.828 37.25 441.336 38.5257 439.099 37.5051C433.878 40.5668 430.709 42.863 429.59 44.3938C428.471 45.9247 427.539 47.7106 426.793 49.7517C424.929 49.2414 423.623 49.4966 422.878 50.5171C422.132 51.0274 421.386 51.5377 420.64 52.0479C419.894 51.0274 418.962 50.7723 417.843 51.2825C417.097 51.2825 415.979 51.0274 414.487 50.5171C410.012 45.9247 407.029 41.5873 405.537 37.5051C402.554 35.464 400.13 34.6986 398.266 35.2089C396.401 35.2089 395.096 34.1884 394.35 32.1473C389.875 33.1678 386.892 34.4435 385.4 35.9743C378.688 35.464 374.772 36.7397 373.654 39.8014C372.908 42.3527 371.23 43.8836 368.619 44.3938C367.128 45.9247 365.823 47.4555 364.704 48.9863C363.585 50.5171 362.094 51.7928 360.229 52.8134C357.992 56.8955 356.686 59.4469 356.313 60.4675C355.941 60.9777 355.381 61.2329 354.635 61.2329C353.144 68.887 351.466 73.4795 349.601 75.0103C348.109 77.5616 347.177 79.3476 346.804 80.3682C346.431 81.3887 345.872 82.1541 345.126 82.6644C345.126 85.726 344.194 87.512 342.329 88.0223C340.838 88.5325 340.465 90.5736 341.211 94.1455C339.346 98.738 338.227 101.289 337.855 101.8C337.482 102.31 337.109 103.075 336.736 104.096C336.736 107.158 335.99 109.199 334.498 110.219C333.38 110.729 333.007 112.515 333.38 115.577C331.515 116.598 330.396 118.384 330.023 120.935C330.023 122.976 329.091 124.507 327.227 125.527C327.227 128.079 326.667 129.865 325.549 130.885C324.43 131.906 323.87 133.947 323.87 137.009C321.633 142.111 319.396 145.428 317.158 146.959C317.158 151.041 315.853 153.848 313.243 155.378C311.005 160.481 309.886 164.053 309.886 166.094C309.886 167.625 309.7 169.156 309.327 170.687L305.971 179.106C304.106 180.127 303.174 182.168 303.174 185.229C303.174 188.291 302.428 190.332 300.937 191.353C300.564 195.435 299.818 198.497 298.699 200.538C297.953 202.068 297.208 204.11 296.462 206.661L294.224 213.55Z" fill="black"/>
</svg>
