<svg width="23" height="23" viewBox="0 0 23 23" fill="none" xmlns="http://www.w3.org/2000/svg">
<path d="M11.3906 1.99603C14.3451 1.99603 14.6987 1.99604 15.8665 2.06118C16.5691 2.0673 17.2651 2.19643 17.9231 2.44271C18.3993 2.62767 18.8319 2.90976 19.1931 3.27103C19.5544 3.6323 19.8365 4.06482 20.0215 4.54109C20.2678 5.19906 20.3969 5.89511 20.403 6.59764C20.4588 7.76548 20.4681 8.11909 20.4681 11.0736C20.4681 14.0281 20.4681 14.3817 20.403 15.5496C20.3969 16.2521 20.2678 16.9481 20.0215 17.6061C19.8365 18.0824 19.5544 18.5149 19.1931 18.8762C18.8319 19.2375 18.3993 19.5195 17.9231 19.7045C17.2651 19.9508 16.5691 20.0799 15.8665 20.086C14.6987 20.1419 14.3497 20.1512 11.3906 20.1512C8.43141 20.1512 8.08245 20.1512 6.9146 20.086C6.21208 20.0799 5.51606 19.9508 4.85808 19.7045C4.38182 19.5195 3.94927 19.2375 3.588 18.8762C3.22673 18.5149 2.94463 18.0824 2.75968 17.6061C2.5134 16.9481 2.38427 16.2521 2.37815 15.5496C2.32231 14.3817 2.313 14.0281 2.313 11.0736C2.313 8.11909 2.31301 7.76548 2.37815 6.59764C2.38427 5.89511 2.5134 5.19906 2.75968 4.54109C2.94463 4.06482 3.22673 3.6323 3.588 3.27103C3.94927 2.90976 4.38182 2.62767 4.85808 2.44271C5.51606 2.19643 6.21208 2.0673 6.9146 2.06118C8.08245 2.00534 8.43606 1.99603 11.3906 1.99603ZM11.3906 0C8.38488 0 8.00801 -2.15843e-05 6.8262 0.0651173C5.90703 0.08412 4.99771 0.258766 4.13688 0.581597C3.39507 0.864179 2.72141 1.30043 2.1601 1.86174C1.59879 2.42305 1.16252 3.09673 0.879937 3.83854C0.557106 4.69937 0.382488 5.60866 0.363486 6.52783C0.312305 7.70964 0.29834 8.08651 0.29834 11.0922C0.29834 14.0979 0.298347 14.4748 0.363486 15.6566C0.382488 16.5758 0.557106 17.4851 0.879937 18.3459C1.16252 19.0877 1.59879 19.7614 2.1601 20.3227C2.72141 20.884 3.39507 21.3203 4.13688 21.6028C4.99771 21.9257 5.90703 22.1003 6.8262 22.1193C8.00801 22.1705 8.38488 22.1844 11.3906 22.1844C14.3963 22.1844 14.7731 22.1844 15.9549 22.1193C16.8741 22.1003 17.7834 21.9257 18.6443 21.6028C19.3861 21.3203 20.0597 20.884 20.621 20.3227C21.1824 19.7614 21.6186 19.0877 21.9012 18.3459C22.224 17.4851 22.3987 16.5758 22.4177 15.6566C22.4688 14.4748 22.4828 14.0979 22.4828 11.0922C22.4828 8.08651 22.4828 7.70964 22.4177 6.52783C22.3987 5.60866 22.224 4.69937 21.9012 3.83854C21.6186 3.09673 21.1824 2.42305 20.621 1.86174C20.0597 1.30043 19.3861 0.864179 18.6443 0.581597C17.7834 0.258766 16.8741 0.08412 15.9549 0.0651173C14.7731 0.0139368 14.3963 0 11.3906 0Z" fill="white"/>
<path d="M11.3906 5.3833C10.2661 5.3833 9.16679 5.71673 8.23178 6.34148C7.29677 6.96624 6.56803 7.85423 6.13769 8.89316C5.70735 9.93208 5.59476 11.0753 5.81415 12.1782C6.03353 13.2811 6.57502 14.2942 7.37018 15.0894C8.16533 15.8845 9.17842 16.426 10.2813 16.6454C11.3843 16.8648 12.5275 16.7522 13.5664 16.3219C14.6053 15.8915 15.4933 15.1628 16.1181 14.2278C16.7428 13.2928 17.0763 12.1935 17.0763 11.069C17.0763 9.56104 16.4773 8.11485 15.411 7.04857C14.3447 5.9823 12.8985 5.3833 11.3906 5.3833ZM11.3906 14.7586C10.6608 14.7586 9.94747 14.5422 9.3407 14.1368C8.73394 13.7314 8.26105 13.1551 7.98179 12.4809C7.70253 11.8067 7.62945 11.0649 7.77181 10.3492C7.91418 9.63344 8.26559 8.976 8.7816 8.46C9.29761 7.94399 9.95505 7.59258 10.6708 7.45021C11.3865 7.30784 12.1283 7.38093 12.8025 7.66019C13.4767 7.93945 14.053 8.41234 14.4584 9.0191C14.8638 9.62586 15.0802 10.3392 15.0802 11.069C15.0802 12.0475 14.6915 12.986 13.9996 13.678C13.3076 14.3699 12.3691 14.7586 11.3906 14.7586Z" fill="white"/>
<path d="M17.2996 6.4906C18.0345 6.4906 18.6303 5.89484 18.6303 5.15991C18.6303 4.42499 18.0345 3.82923 17.2996 3.82923C16.5647 3.82923 15.9689 4.42499 15.9689 5.15991C15.9689 5.89484 16.5647 6.4906 17.2996 6.4906Z" fill="white"/>
</svg>
