<svg width="23" height="23" viewBox="0 0 23 23" fill="none" xmlns="http://www.w3.org/2000/svg">
<path d="M0.661242 7.33741H5.25353V22.1053H0.661242V7.33741ZM2.95971 0C3.48609 0 4.00064 0.156086 4.4383 0.448523C4.87596 0.74096 5.21709 1.15659 5.41853 1.6429C5.61996 2.1292 5.67266 2.66432 5.56997 3.18058C5.46728 3.69684 5.21382 4.17107 4.84161 4.54327C4.46941 4.91548 3.99518 5.16894 3.47892 5.27163C2.96266 5.37432 2.42754 5.32162 1.94124 5.12019C1.45493 4.91875 1.0393 4.57762 0.746863 4.13996C0.454425 3.7023 0.29834 3.18775 0.29834 2.66138C0.29834 1.95553 0.578709 1.27858 1.07782 0.779477C1.57692 0.280369 2.25387 0 2.95971 0Z" fill="white"/>
<path d="M8.1336 7.33742H12.5305V9.35673H12.6142C13.0547 8.60413 13.691 7.98511 14.4555 7.5656C15.2199 7.14608 16.0839 6.9418 16.9553 6.97451C21.6081 6.97451 22.4595 10.0314 22.4595 14.0049V22.1053H17.8719V14.9261C17.8719 13.2139 17.8439 11.0085 15.4896 11.0085C13.1353 11.0085 12.7352 12.8696 12.7352 14.8005V22.1053H8.1522L8.1336 7.33742Z" fill="white"/>
</svg>
